<svg xmlns="http://www.w3.org/2000/svg" xmlns:xlink="http://www.w3.org/1999/xlink" width="50" zoomAndPan="magnify" viewBox="0 0 37.5 37.499999" height="50" preserveAspectRatio="xMidYMid meet" version="1.0"><path fill="#00c2cb" d="M 12.5 10.9375 L 25 10.9375 C 25.207031 10.9375 25.40625 10.976562 25.597656 11.054688 C 25.789062 11.136719 25.957031 11.25 26.105469 11.394531 C 26.25 11.542969 26.363281 11.710938 26.445312 11.902344 C 26.523438 12.09375 26.5625 12.292969 26.5625 12.5 C 26.5625 12.707031 26.523438 12.90625 26.445312 13.097656 C 26.363281 13.289062 26.25 13.457031 26.105469 13.605469 C 25.957031 13.75 25.789062 13.863281 25.597656 13.945312 C 25.40625 14.023438 25.207031 14.0625 25 14.0625 L 12.5 14.0625 C 12.292969 14.0625 12.09375 14.023438 11.902344 13.945312 C 11.710938 13.863281 11.542969 13.75 11.394531 13.605469 C 11.25 13.457031 11.136719 13.289062 11.054688 13.097656 C 10.976562 12.90625 10.9375 12.707031 10.9375 12.5 C 10.9375 12.292969 10.976562 12.09375 11.054688 11.902344 C 11.136719 11.710938 11.25 11.542969 11.394531 11.394531 C 11.542969 11.25 11.710938 11.136719 11.902344 11.054688 C 12.09375 10.976562 12.292969 10.9375 12.5 10.9375 Z M 12.5 23.4375 L 25 23.4375 C 25.207031 23.4375 25.40625 23.476562 25.597656 23.554688 C 25.789062 23.636719 25.957031 23.75 26.105469 23.894531 C 26.25 24.042969 26.363281 24.210938 26.445312 24.402344 C 26.523438 24.59375 26.5625 24.792969 26.5625 25 C 26.5625 25.207031 26.523438 25.40625 26.445312 25.597656 C 26.363281 25.789062 26.25 25.957031 26.105469 26.105469 C 25.957031 26.25 25.789062 26.363281 25.597656 26.445312 C 25.40625 26.523438 25.207031 26.5625 25 26.5625 L 12.5 26.5625 C 12.292969 26.5625 12.09375 26.523438 11.902344 26.445312 C 11.710938 26.363281 11.542969 26.25 11.394531 26.105469 C 11.25 25.957031 11.136719 25.789062 11.054688 25.597656 C 10.976562 25.40625 10.9375 25.207031 10.9375 25 C 10.9375 24.792969 10.976562 24.59375 11.054688 24.402344 C 11.136719 24.210938 11.25 24.042969 11.394531 23.894531 C 11.542969 23.75 11.710938 23.636719 11.902344 23.554688 C 12.09375 23.476562 12.292969 23.4375 12.5 23.4375 Z M 9.375 17.1875 L 28.125 17.1875 C 28.332031 17.1875 28.53125 17.226562 28.722656 17.304688 C 28.914062 17.386719 29.082031 17.5 29.230469 17.644531 C 29.375 17.792969 29.488281 17.960938 29.570312 18.152344 C 29.648438 18.34375 29.6875 18.542969 29.6875 18.75 C 29.6875 18.957031 29.648438 19.15625 29.570312 19.347656 C 29.488281 19.539062 29.375 19.707031 29.230469 19.855469 C 29.082031 20 28.914062 20.113281 28.722656 20.195312 C 28.53125 20.273438 28.332031 20.3125 28.125 20.3125 L 9.375 20.3125 C 9.167969 20.3125 8.96875 20.273438 8.777344 20.195312 C 8.585938 20.113281 8.417969 20 8.269531 19.855469 C 8.125 19.707031 8.011719 19.539062 7.929688 19.347656 C 7.851562 19.15625 7.8125 18.957031 7.8125 18.75 C 7.8125 18.542969 7.851562 18.34375 7.929688 18.152344 C 8.011719 17.960938 8.125 17.792969 8.269531 17.644531 C 8.417969 17.5 8.585938 17.386719 8.777344 17.304688 C 8.96875 17.226562 9.167969 17.1875 9.375 17.1875 Z M 9.375 17.1875 " fill-opacity="1" fill-rule="nonzero"/></svg>