<svg xmlns="http://www.w3.org/2000/svg" width="15.072" height="21.01" viewBox="0 0 15.072 21.01"><path d="M25.652,1.8A7.635,7.635,0,0,0,20.536,0a7.635,7.635,0,0,0-5.115,1.8A7.931,7.931,0,0,0,13,7.993c0,5.732,6.6,12.469,6.9,12.743a.9.9,0,0,0,.639.274.864.864,0,0,0,.639-.274c.3-.274,6.9-7.011,6.9-12.743A7.931,7.931,0,0,0,25.652,1.8ZM20.536,18.749a34.193,34.193,0,0,1-2.558-3.2c-2.055-2.923-3.151-5.526-3.151-7.559,0-5.709,4.362-6.166,5.709-6.166,5.3,0,5.709,4.727,5.709,6.166C26.245,12.012,22.158,16.968,20.536,18.749Zm0-14.8a3.689,3.689,0,1,0,3.631,3.677,3.67,3.67,0,0,0-3.631-3.677Zm0,5.778a2.1,2.1,0,1,1,2.032-2.1A2.067,2.067,0,0,1,20.536,9.728Z" transform="translate(-13)" fill="#011d26"/></svg>