<svg xmlns="http://www.w3.org/2000/svg" xmlns:xlink="http://www.w3.org/1999/xlink" width="50" zoomAndPan="magnify" viewBox="0 0 37.5 37.499999" height="50" preserveAspectRatio="xMidYMid meet" version="1.0"><path fill="#00c2cb" d="M 25.027344 3.125 L 12.417969 3.125 C 11.808594 3.125 11.203125 3.1875 10.605469 3.304688 C 10.007812 3.425781 9.425781 3.601562 8.863281 3.835938 C 8.300781 4.070312 7.765625 4.355469 7.257812 4.695312 C 6.75 5.035156 6.28125 5.417969 5.847656 5.851562 C 5.417969 6.28125 5.03125 6.75 4.695312 7.257812 C 4.355469 7.765625 4.070312 8.300781 3.835938 8.863281 C 3.601562 9.425781 3.425781 10.007812 3.304688 10.605469 C 3.1875 11.203125 3.125 11.808594 3.125 12.417969 L 3.125 25.027344 C 3.125 25.636719 3.1875 26.242188 3.304688 26.839844 C 3.425781 27.4375 3.601562 28.019531 3.835938 28.582031 C 4.070312 29.144531 4.355469 29.679688 4.695312 30.1875 C 5.035156 30.695312 5.417969 31.164062 5.851562 31.597656 C 6.28125 32.027344 6.75 32.414062 7.257812 32.75 C 7.765625 33.089844 8.300781 33.375 8.863281 33.609375 C 9.425781 33.84375 10.007812 34.019531 10.605469 34.140625 C 11.203125 34.257812 11.808594 34.320312 12.417969 34.320312 L 25.027344 34.320312 C 25.636719 34.320312 26.242188 34.257812 26.839844 34.140625 C 27.4375 34.019531 28.019531 33.84375 28.582031 33.609375 C 29.144531 33.375 29.679688 33.089844 30.1875 32.75 C 30.695312 32.410156 31.164062 32.027344 31.597656 31.59375 C 32.027344 31.164062 32.414062 30.695312 32.75 30.1875 C 33.089844 29.679688 33.375 29.144531 33.609375 28.582031 C 33.84375 28.019531 34.019531 27.4375 34.140625 26.839844 C 34.257812 26.242188 34.320312 25.636719 34.320312 25.027344 L 34.320312 12.417969 C 34.320312 11.808594 34.257812 11.203125 34.140625 10.605469 C 34.019531 10.007812 33.84375 9.425781 33.609375 8.863281 C 33.375 8.300781 33.089844 7.765625 32.75 7.257812 C 32.410156 6.75 32.027344 6.28125 31.59375 5.847656 C 31.164062 5.417969 30.695312 5.03125 30.1875 4.695312 C 29.679688 4.355469 29.144531 4.070312 28.582031 3.835938 C 28.019531 3.601562 27.4375 3.425781 26.839844 3.304688 C 26.242188 3.1875 25.636719 3.125 25.027344 3.125 Z M 31.183594 25.027344 C 31.183594 25.429688 31.144531 25.832031 31.066406 26.226562 C 30.984375 26.625 30.867188 27.007812 30.714844 27.382812 C 30.558594 27.757812 30.371094 28.109375 30.144531 28.445312 C 29.921875 28.78125 29.664062 29.09375 29.378906 29.378906 C 29.09375 29.664062 28.78125 29.921875 28.445312 30.144531 C 28.109375 30.371094 27.757812 30.558594 27.382812 30.714844 C 27.007812 30.867188 26.625 30.984375 26.226562 31.066406 C 25.832031 31.144531 25.429688 31.183594 25.027344 31.183594 L 12.417969 31.183594 C 12.011719 31.183594 11.613281 31.144531 11.214844 31.0625 C 10.820312 30.984375 10.433594 30.867188 10.0625 30.714844 C 9.6875 30.558594 9.332031 30.371094 8.996094 30.144531 C 8.660156 29.921875 8.351562 29.664062 8.066406 29.378906 C 7.78125 29.09375 7.523438 28.78125 7.300781 28.445312 C 7.074219 28.109375 6.886719 27.753906 6.730469 27.382812 C 6.578125 27.007812 6.460938 26.625 6.378906 26.226562 C 6.300781 25.832031 6.261719 25.429688 6.261719 25.027344 L 6.261719 12.417969 C 6.261719 12.011719 6.300781 11.613281 6.382812 11.214844 C 6.460938 10.820312 6.578125 10.433594 6.730469 10.0625 C 6.886719 9.6875 7.074219 9.332031 7.300781 8.996094 C 7.523438 8.660156 7.78125 8.351562 8.066406 8.066406 C 8.351562 7.78125 8.664062 7.523438 9 7.300781 C 9.335938 7.074219 9.691406 6.886719 10.0625 6.730469 C 10.4375 6.578125 10.820312 6.460938 11.21875 6.378906 C 11.613281 6.300781 12.015625 6.261719 12.417969 6.261719 L 25.027344 6.261719 C 25.433594 6.261719 25.832031 6.300781 26.230469 6.382812 C 26.625 6.460938 27.011719 6.578125 27.382812 6.730469 C 27.757812 6.886719 28.113281 7.074219 28.449219 7.300781 C 28.785156 7.523438 29.09375 7.78125 29.378906 8.066406 C 29.664062 8.351562 29.921875 8.664062 30.144531 9 C 30.371094 9.335938 30.558594 9.691406 30.714844 10.0625 C 30.867188 10.4375 30.984375 10.820312 31.066406 11.21875 C 31.144531 11.613281 31.183594 12.015625 31.183594 12.417969 Z M 31.183594 25.027344 " fill-opacity="1" fill-rule="nonzero"/><path fill="#00c2cb" d="M 18.722656 10.65625 C 18.191406 10.65625 17.667969 10.707031 17.148438 10.8125 C 16.628906 10.914062 16.125 11.070312 15.636719 11.273438 C 15.148438 11.476562 14.683594 11.722656 14.242188 12.019531 C 13.804688 12.3125 13.394531 12.648438 13.023438 13.019531 C 12.648438 13.394531 12.3125 13.804688 12.019531 14.242188 C 11.722656 14.683594 11.476562 15.148438 11.273438 15.636719 C 11.070312 16.125 10.917969 16.628906 10.8125 17.148438 C 10.710938 17.667969 10.65625 18.191406 10.65625 18.722656 C 10.65625 19.25 10.710938 19.777344 10.8125 20.296875 C 10.917969 20.816406 11.070312 21.320312 11.273438 21.808594 C 11.476562 22.296875 11.722656 22.761719 12.019531 23.203125 C 12.3125 23.640625 12.648438 24.050781 13.023438 24.425781 C 13.394531 24.796875 13.804688 25.132812 14.242188 25.425781 C 14.683594 25.722656 15.148438 25.96875 15.636719 26.171875 C 16.125 26.375 16.632812 26.53125 17.148438 26.632812 C 17.667969 26.738281 18.195312 26.789062 18.722656 26.789062 C 19.253906 26.789062 19.777344 26.738281 20.296875 26.632812 C 20.816406 26.53125 21.320312 26.375 21.808594 26.175781 C 22.300781 25.972656 22.765625 25.722656 23.203125 25.429688 C 23.644531 25.132812 24.050781 24.800781 24.425781 24.425781 C 24.800781 24.050781 25.136719 23.644531 25.429688 23.203125 C 25.722656 22.761719 25.972656 22.296875 26.175781 21.808594 C 26.378906 21.320312 26.53125 20.816406 26.636719 20.296875 C 26.738281 19.777344 26.792969 19.25 26.792969 18.722656 C 26.792969 18.191406 26.738281 17.667969 26.636719 17.148438 C 26.53125 16.628906 26.378906 16.125 26.175781 15.636719 C 25.972656 15.148438 25.722656 14.683594 25.429688 14.242188 C 25.132812 13.800781 24.800781 13.394531 24.425781 13.019531 C 24.050781 12.644531 23.640625 12.3125 23.203125 12.019531 C 22.761719 11.722656 22.296875 11.476562 21.808594 11.273438 C 21.320312 11.070312 20.816406 10.917969 20.296875 10.8125 C 19.777344 10.707031 19.25 10.65625 18.722656 10.65625 Z M 18.722656 23.652344 C 18.398438 23.652344 18.078125 23.621094 17.761719 23.558594 C 17.441406 23.496094 17.132812 23.402344 16.835938 23.277344 C 16.535156 23.152344 16.253906 23.003906 15.984375 22.824219 C 15.714844 22.640625 15.464844 22.4375 15.234375 22.210938 C 15.007812 21.980469 14.804688 21.730469 14.621094 21.460938 C 14.441406 21.191406 14.292969 20.910156 14.167969 20.609375 C 14.042969 20.3125 13.949219 20.003906 13.886719 19.683594 C 13.824219 19.367188 13.792969 19.046875 13.792969 18.722656 C 13.792969 18.398438 13.824219 18.078125 13.886719 17.761719 C 13.949219 17.445312 14.042969 17.136719 14.167969 16.835938 C 14.292969 16.539062 14.441406 16.253906 14.621094 15.984375 C 14.804688 15.714844 15.007812 15.464844 15.234375 15.238281 C 15.464844 15.007812 15.714844 14.804688 15.984375 14.625 C 16.253906 14.445312 16.535156 14.292969 16.835938 14.167969 C 17.132812 14.046875 17.441406 13.953125 17.761719 13.886719 C 18.078125 13.824219 18.398438 13.792969 18.722656 13.792969 C 19.046875 13.792969 19.367188 13.824219 19.683594 13.886719 C 20 13.953125 20.308594 14.046875 20.609375 14.167969 C 20.90625 14.292969 21.191406 14.445312 21.460938 14.625 C 21.730469 14.804688 21.980469 15.007812 22.207031 15.238281 C 22.4375 15.464844 22.640625 15.714844 22.820312 15.984375 C 23 16.253906 23.152344 16.539062 23.277344 16.835938 C 23.398438 17.136719 23.492188 17.445312 23.558594 17.761719 C 23.621094 18.078125 23.652344 18.398438 23.652344 18.722656 C 23.652344 19.046875 23.621094 19.367188 23.558594 19.683594 C 23.492188 20.003906 23.398438 20.3125 23.277344 20.609375 C 23.152344 20.910156 23 21.191406 22.820312 21.460938 C 22.640625 21.730469 22.4375 21.980469 22.207031 22.210938 C 21.980469 22.4375 21.730469 22.640625 21.460938 22.824219 C 21.191406 23.003906 20.90625 23.152344 20.609375 23.277344 C 20.308594 23.402344 20 23.496094 19.683594 23.558594 C 19.367188 23.621094 19.046875 23.652344 18.722656 23.652344 Z M 18.722656 23.652344 " fill-opacity="1" fill-rule="nonzero"/><path fill="#00c2cb" d="M 28.738281 10.714844 C 28.738281 10.972656 28.691406 11.21875 28.59375 11.457031 C 28.492188 11.691406 28.355469 11.902344 28.171875 12.082031 C 27.992188 12.261719 27.78125 12.402344 27.546875 12.5 C 27.308594 12.597656 27.0625 12.648438 26.804688 12.648438 C 26.550781 12.648438 26.304688 12.597656 26.066406 12.5 C 25.828125 12.402344 25.621094 12.261719 25.441406 12.082031 C 25.257812 11.902344 25.117188 11.691406 25.019531 11.457031 C 24.921875 11.21875 24.875 10.972656 24.875 10.714844 C 24.875 10.460938 24.921875 10.210938 25.019531 9.976562 C 25.117188 9.738281 25.257812 9.53125 25.441406 9.347656 C 25.621094 9.167969 25.828125 9.027344 26.066406 8.929688 C 26.304688 8.832031 26.550781 8.78125 26.804688 8.78125 C 27.0625 8.78125 27.308594 8.832031 27.546875 8.929688 C 27.78125 9.027344 27.992188 9.167969 28.171875 9.347656 C 28.355469 9.53125 28.492188 9.738281 28.59375 9.976562 C 28.691406 10.210938 28.738281 10.460938 28.738281 10.714844 Z M 28.738281 10.714844 " fill-opacity="1" fill-rule="nonzero"/></svg>