<svg xmlns="http://www.w3.org/2000/svg" width="527" height="146.623" viewBox="0 0 527 146.623">
  <g id="Group_4" data-name="Group 4" transform="translate(-43.318 -91.325)">
    <g id="Group_1" data-name="Group 1" transform="translate(43.318 91.325)">
      <path id="Path_3" data-name="Path 3" d="M43.318,149.492v11.245l40.651-9.129Z" transform="translate(-43.318 -83.703)" fill="#0f9aaa"/>
      <path id="Path_4" data-name="Path 4" d="M219.717,220.467l-.844-25.2-59.028-50.457-38.227,41.266.412,34.392Z" transform="translate(-33.058 -84.317)" fill="#0f9aaa" opacity="0.4"/>
      <path id="Path_5" data-name="Path 5" d="M127.169,190.9l-25.033-82.906L79.259,157.045,92.24,195.464Z" transform="translate(-38.609 -89.141)" fill="#0f9aaa"/>
      <path id="Path_6" data-name="Path 6" d="M43.318,145.243,81.33,148l25.262-56.675L43.318,113.352Z" transform="translate(-43.318 -91.325)" fill="#4d4e57" opacity="0.7"/>
      <path id="Path_7" data-name="Path 7" d="M159.164,136.847l-43.283,8.55,8.661,27.691Z" transform="translate(-33.81 -85.36)" fill="#4d4e57" opacity="0.7"/>
      <path id="Path_8" data-name="Path 8" d="M96.95,189.781,83.969,151.362l-40.651,9.129v59.117H97.949Z" transform="translate(-43.318 -83.458)" fill="#4d4e57"/>
      <path id="Path_9" data-name="Path 9" d="M91.735,215.686h34.342l-.412-34.392-34.929,4.565Z" transform="translate(-37.105 -79.536)" fill="#0f9aaa" opacity="0.79"/>
    </g>
    <g id="Group_2" data-name="Group 2" transform="translate(278.543 152.155)">
      <path id="Path_10" data-name="Path 10" d="M287.108,170.6h-6.13v13.672h-7.694V146.922h13.878q6.617,0,10.208,2.95a10.181,10.181,0,0,1,3.592,8.336,11.492,11.492,0,0,1-1.655,6.375,11.277,11.277,0,0,1-5.015,4.066l8.079,15.262v.359h-8.26Zm-6.13-6.233h6.207a6.358,6.358,0,0,0,4.489-1.474,5.275,5.275,0,0,0,1.59-4.066,5.64,5.64,0,0,0-1.5-4.155,6.237,6.237,0,0,0-4.6-1.513h-6.183Z" transform="translate(-248.408 -144.869)" fill="#0f9aaa"/>
      <path id="Path_11" data-name="Path 11" d="M301.687,169.083a16.428,16.428,0,0,1,1.59-7.361,11.622,11.622,0,0,1,4.578-5,13.352,13.352,0,0,1,6.938-1.77,12.639,12.639,0,0,1,9.17,3.437,13.8,13.8,0,0,1,3.963,9.337l.052,1.9q0,6.388-3.566,10.248a13.819,13.819,0,0,1-19.149.012q-3.578-3.848-3.577-10.466Zm7.412.527a10.373,10.373,0,0,0,1.488,6.05,5.344,5.344,0,0,0,8.465.025q1.513-2.068,1.513-6.614a10.268,10.268,0,0,0-1.513-6.011,4.921,4.921,0,0,0-4.258-2.133,4.84,4.84,0,0,0-4.206,2.12Q309.1,165.165,309.1,169.611Z" transform="translate(-244.686 -143.817)" fill="#0f9aaa"/>
      <path id="Path_12" data-name="Path 12" d="M337.357,184.507h-7.439v-39.4h7.439Z" transform="translate(-240.987 -145.107)" fill="#0f9aaa"/>
      <path id="Path_13" data-name="Path 13" d="M276.274,201.18q0,6.415-2.911,10.273a9.332,9.332,0,0,1-7.862,3.86,8.647,8.647,0,0,1-6.8-2.923v13.082H251.29V187.046h6.873l.257,2.72a8.711,8.711,0,0,1,7.028-3.233,9.4,9.4,0,0,1,7.977,3.8q2.849,3.8,2.848,10.466Zm-7.413-.564a10.981,10.981,0,0,0-1.373-5.995,4.466,4.466,0,0,0-3.989-2.111q-3.488,0-4.8,2.676v11.4a4.932,4.932,0,0,0,4.848,2.752Q268.861,209.337,268.861,200.615Z" transform="translate(-251.29 -139.678)" fill="#0f9aaa"/>
      <path id="Path_14" data-name="Path 14" d="M291.057,215.313a13.623,13.623,0,0,1-9.94-3.744,13.312,13.312,0,0,1-3.834-9.978v-.718A16.773,16.773,0,0,1,278.9,193.4a11.869,11.869,0,0,1,4.58-5.079,12.858,12.858,0,0,1,6.759-1.783,11.522,11.522,0,0,1,8.965,3.591q3.271,3.592,3.27,10.184v3.027H284.8a6.875,6.875,0,0,0,2.167,4.36,6.552,6.552,0,0,0,4.58,1.641,8,8,0,0,0,6.695-3.1l3.641,4.08a11.121,11.121,0,0,1-4.513,3.68A14.817,14.817,0,0,1,291.057,215.313Zm-.846-22.8a4.63,4.63,0,0,0-3.579,1.5,7.738,7.738,0,0,0-1.757,4.276h10.312v-.594a5.524,5.524,0,0,0-1.333-3.824A4.778,4.778,0,0,0,290.211,192.51Z" transform="translate(-247.884 -139.678)" fill="#0f9aaa"/>
      <path id="Path_15" data-name="Path 15" d="M320.227,214.8a8.266,8.266,0,0,1-.744-2.488,8.964,8.964,0,0,1-7,3,9.853,9.853,0,0,1-6.759-2.358A7.59,7.59,0,0,1,303.041,207a7.842,7.842,0,0,1,3.271-6.772q3.269-2.36,9.452-2.386h3.412v-1.589a4.579,4.579,0,0,0-.987-3.079,3.889,3.889,0,0,0-3.117-1.154,4.417,4.417,0,0,0-2.937.9,3.051,3.051,0,0,0-1.064,2.462h-7.413a7.442,7.442,0,0,1,1.487-4.463,9.837,9.837,0,0,1,4.206-3.219,15.333,15.333,0,0,1,6.105-1.167,12.12,12.12,0,0,1,8.145,2.578,9.022,9.022,0,0,1,3.013,7.247v12.03a13.283,13.283,0,0,0,1.1,5.978v.435Zm-6.131-5.155a6.385,6.385,0,0,0,3.028-.732,4.8,4.8,0,0,0,2.053-1.961v-4.772h-2.771q-5.566,0-5.926,3.849l-.025.434a2.967,2.967,0,0,0,.974,2.284A3.786,3.786,0,0,0,314.1,209.646Z" transform="translate(-244.509 -139.678)" fill="#0f9aaa"/>
      <path id="Path_16" data-name="Path 16" d="M337.357,216.091h-7.439v-39.4h7.439Z" transform="translate(-240.987 -140.968)" fill="#0f9aaa"/>
    </g>
    <g id="Group_3" data-name="Group 3" transform="translate(392.541 152.811)">
      <path id="Path_17" data-name="Path 17" d="M363.719,160.236a1.824,1.824,0,0,0-.822-1.559,8.45,8.45,0,0,0-2.8-1.056,25.071,25.071,0,0,1-3.328-1,8.074,8.074,0,0,1-2.221-1.249,4.525,4.525,0,0,1-1.289-1.667,5.541,5.541,0,0,1-.42-2.254,5.022,5.022,0,0,1,2.095-4.14,8.55,8.55,0,0,1,5.4-1.626,9.589,9.589,0,0,1,5.825,1.634,5.248,5.248,0,0,1,2.22,4.466h-4.843a2.243,2.243,0,0,0-.864-1.793,4.112,4.112,0,0,0-4.416-.152,1.694,1.694,0,0,0-.805,1.425,1.583,1.583,0,0,0,.838,1.382,10.175,10.175,0,0,0,2.782,1.015,12.462,12.462,0,0,1,5.59,2.364,5.189,5.189,0,0,1,1.685,4.073,4.855,4.855,0,0,1-2.063,4.131,9.308,9.308,0,0,1-5.63,1.518,11.693,11.693,0,0,1-4.392-.788,6.731,6.731,0,0,1-3.026-2.246,5.691,5.691,0,0,1-1.064-3.453h4.861a2.57,2.57,0,0,0,.963,2.246,4.981,4.981,0,0,0,2.892.688,3.541,3.541,0,0,0,2.07-.536A1.664,1.664,0,0,0,363.719,160.236Z" transform="translate(-352.069 -145.687)" fill="#4d4e57"/>
      <path id="Path_18" data-name="Path 18" d="M380.2,159.032v6.419h-4.861V145.924h8.33a10.031,10.031,0,0,1,4.223.846,6.486,6.486,0,0,1,2.841,2.406,6.39,6.39,0,0,1,1,3.52,5.557,5.557,0,0,1-2.2,4.618,9.413,9.413,0,0,1-5.95,1.718Zm0-3.905h3.469a3.894,3.894,0,0,0,2.389-.639,2.09,2.09,0,0,0,.846-1.766,2.721,2.721,0,0,0-.846-2.085,3.35,3.35,0,0,0-2.338-.808H380.2Z" transform="translate(-349.033 -145.656)" fill="#4d4e57"/>
      <path id="Path_19" data-name="Path 19" d="M416.142,156.113a10.963,10.963,0,0,1-1.123,5.061,8,8,0,0,1-3.21,3.386,9.387,9.387,0,0,1-4.735,1.19,9.528,9.528,0,0,1-4.753-1.174,8.033,8.033,0,0,1-3.226-3.343,10.748,10.748,0,0,1-1.157-5v-.871a11,11,0,0,1,1.124-5.078,8.056,8.056,0,0,1,3.2-3.394,10.1,10.1,0,0,1,9.5-.026,8.09,8.09,0,0,1,3.218,3.361,10.814,10.814,0,0,1,1.165,5.037Zm-4.861-.762a7.027,7.027,0,0,0-1.114-4.269,4.06,4.06,0,0,0-6.285,0,7.192,7.192,0,0,0-1.081,4.269v.77a7.121,7.121,0,0,0,1.106,4.25,3.679,3.679,0,0,0,3.168,1.523,3.642,3.642,0,0,0,3.075-1.507,7.087,7.087,0,0,0,1.131-4.318Z" transform="translate(-346.072 -145.687)" fill="#4d4e57"/>
      <path id="Path_20" data-name="Path 20" d="M430.671,158.713h-3.035v6.738h-4.861V145.924h8.147a9.6,9.6,0,0,1,5.8,1.534,5.069,5.069,0,0,1,2.078,4.333,6.263,6.263,0,0,1-.862,3.428,6.128,6.128,0,0,1-2.808,2.2l4.425,7.828v.2h-5.229Zm-3.035-3.905h3.286q3.033,0,3.033-2.505,0-2.474-3.168-2.472h-3.151Z" transform="translate(-342.817 -145.656)" fill="#4d4e57"/>
      <path id="Path_21" data-name="Path 21" d="M462.348,149.829h-6.336V165.45h-4.86V149.829h-6.217v-3.905h17.413Z" transform="translate(-339.913 -145.656)" fill="#4d4e57"/>
      <path id="Path_22" data-name="Path 22" d="M369.091,183.163a6.931,6.931,0,0,1-2.446,4.86,8.6,8.6,0,0,1-5.616,1.727A7.79,7.79,0,0,1,355,187.278a9.689,9.689,0,0,1-2.271-6.813v-1.576a10.785,10.785,0,0,1,1.031-4.836,7.507,7.507,0,0,1,2.967-3.226,8.661,8.661,0,0,1,4.482-1.14,8.166,8.166,0,0,1,5.49,1.768,7.1,7.1,0,0,1,2.388,4.9h-3.1a4.751,4.751,0,0,0-1.483-3.151,5.046,5.046,0,0,0-3.295-.973,4.843,4.843,0,0,0-3.963,1.7,7.537,7.537,0,0,0-1.416,4.869v1.776a7.9,7.9,0,0,0,1.332,4.9,4.574,4.574,0,0,0,3.862,1.735,5.473,5.473,0,0,0,3.445-.931,4.7,4.7,0,0,0,1.517-3.125Z" transform="translate(-351.996 -142.542)" fill="#4d4e57"/>
      <path id="Path_23" data-name="Path 23" d="M388.667,180.635h-8.916v6.285h10.375v2.53H376.65V169.924h13.377v2.564H379.751v5.6h8.916Z" transform="translate(-348.861 -142.511)" fill="#4d4e57"/>
      <path id="Path_24" data-name="Path 24" d="M414.007,189.45h-3.083l-10.141-14.682V189.45h-3.1V169.924h3.1l10.141,14.7v-14.7h3.083Z" transform="translate(-346.105 -142.511)" fill="#4d4e57"/>
      <path id="Path_25" data-name="Path 25" d="M437.507,172.488h-6.689V189.45h-3.1V172.488h-6.654v-2.564h16.444Z" transform="translate(-343.042 -142.511)" fill="#4d4e57"/>
      <path id="Path_26" data-name="Path 26" d="M452.326,181.925h-4.677v7.525h-3.1V169.924h7.14a8.58,8.58,0,0,1,5.506,1.559,5.339,5.339,0,0,1,1.935,4.409q0,3.821-3.938,5.313l4.828,8.079v.167H456.7Zm-4.677-2.531h4.124a4.855,4.855,0,0,0,3.109-.914,2.993,2.993,0,0,0,1.148-2.471,3.175,3.175,0,0,0-1.123-2.6,4.984,4.984,0,0,0-3.235-.922h-4.023Z" transform="translate(-339.964 -142.511)" fill="#4d4e57"/>
      <path id="Path_27" data-name="Path 27" d="M482.167,169.924V183a6.174,6.174,0,0,1-2.1,4.886,8.192,8.192,0,0,1-5.6,1.836,8.294,8.294,0,0,1-5.583-1.769,6.168,6.168,0,0,1-2.112-4.818V169.924h3.067V183a3.972,3.972,0,0,0,1.2,3.109,5.958,5.958,0,0,0,6.821.017,3.96,3.96,0,0,0,1.2-3.126V169.924Z" transform="translate(-337.051 -142.511)" fill="#4d4e57"/>
      <path id="Path_28" data-name="Path 28" d="M494.6,169.924l6.553,15.269,6.519-15.269h4.041V189.45h-3.085V182.73l.319-8.934-6.671,15.655h-2.28l-6.653-15.587.318,8.866v6.721h-3.084V169.924Z" transform="translate(-333.933 -142.511)" fill="#4d4e57"/>
      <path id="Path_29" data-name="Path 29" d="M358.267,212.042l.921-3.252,4.929-14.866h.955l4.86,14.866.939,3.3.939-3.368,4.257-14.8h.956l-5.6,19.526h-.989l-5.85-18.135-.689,2.18-5.212,15.956h-.972l-5.633-19.526h.989l4.241,14.682Z" transform="translate(-352.081 -139.366)" fill="#4d4e57"/>
      <path id="Path_30" data-name="Path 30" d="M398.286,205.067a10.2,10.2,0,0,1-.981,4.559,7.056,7.056,0,0,1-2.791,3.058,8.037,8.037,0,0,1-4.157,1.065,7.468,7.468,0,0,1-5.7-2.3,8.862,8.862,0,0,1-2.245-6.119v-2.95a10.194,10.194,0,0,1,.981-4.558,7.116,7.116,0,0,1,2.79-3.067,7.991,7.991,0,0,1,4.158-1.072,7.462,7.462,0,0,1,5.757,2.371,9.113,9.113,0,0,1,2.187,6.428Zm-.889-2.725a8.1,8.1,0,0,0-1.9-5.645,7.338,7.338,0,0,0-10.273-.017,8.207,8.207,0,0,0-1.9,5.746v2.634a8.186,8.186,0,0,0,1.894,5.662,7.32,7.32,0,0,0,10.29.017,8.27,8.27,0,0,0,1.895-5.746Z" transform="translate(-348.106 -139.397)" fill="#4d4e57"/>
      <path id="Path_31" data-name="Path 31" d="M414.843,205.289h-7.157v8.162h-.9V193.924h6.7a7.651,7.651,0,0,1,5.012,1.568,5.2,5.2,0,0,1,1.91,4.248,5.044,5.044,0,0,1-1.332,3.47,5.73,5.73,0,0,1-3.326,1.861l5.531,8.212v.167h-.956Zm-7.157-.906h6.454A5.63,5.63,0,0,0,418,203.074a4.263,4.263,0,0,0,1.484-3.341,4.41,4.41,0,0,0-1.577-3.528,6.556,6.556,0,0,0-4.308-1.375h-5.917Z" transform="translate(-344.913 -139.366)" fill="#4d4e57"/>
      <path id="Path_32" data-name="Path 32" d="M433.689,203.277l-3.269,2.916v7.258h-.9V193.924h.9v11.163l3.352-3.118,8.548-8.045H443.6l-9.185,8.7,10.022,10.827h-1.206Z" transform="translate(-341.934 -139.366)" fill="#4d4e57"/>
      <path id="Path_33" data-name="Path 33" d="M466.108,193.924V207.2a6.1,6.1,0,0,1-1.969,4.8,8.792,8.792,0,0,1-10.467-.016,6.147,6.147,0,0,1-1.944-4.836V193.924h.889v13.213a5.32,5.32,0,0,0,1.559,3.995,6.37,6.37,0,0,0,4.24,1.665l.5.017a6.623,6.623,0,0,0,4.534-1.507,5.242,5.242,0,0,0,1.752-4.069V193.924Z" transform="translate(-339.023 -139.366)" fill="#4d4e57"/>
      <path id="Path_34" data-name="Path 34" d="M476.62,193.924l8.531,18.153,8.547-18.153h1.29V213.45h-.9l.017-18.27-8.581,18.27H484.8l-8.548-18.2.017,18.2h-.9V193.924Z" transform="translate(-335.926 -139.366)" fill="#4d4e57"/>
    </g>
  </g>
</svg>
