<svg xmlns="http://www.w3.org/2000/svg" xmlns:xlink="http://www.w3.org/1999/xlink" width="50" zoomAndPan="magnify" viewBox="0 0 37.5 37.499999" height="50" preserveAspectRatio="xMidYMid meet" version="1.0"><path fill="#00c2cb" d="M 11.085938 28.625 C 11.679688 29.089844 12.3125 29.496094 12.984375 29.84375 C 13.652344 30.191406 14.347656 30.476562 15.070312 30.699219 C 15.792969 30.921875 16.527344 31.078125 17.277344 31.167969 C 18.027344 31.257812 18.78125 31.277344 19.535156 31.230469 C 20.289062 31.183594 21.03125 31.070312 21.765625 30.890625 C 22.496094 30.707031 23.207031 30.460938 23.898438 30.148438 C 24.585938 29.839844 25.242188 29.46875 25.863281 29.039062 C 26.484375 28.609375 27.0625 28.128906 27.59375 27.59375 C 28.128906 27.0625 28.609375 26.484375 29.039062 25.863281 C 29.46875 25.242188 29.839844 24.585938 30.148438 23.898438 C 30.460938 23.207031 30.707031 22.496094 30.890625 21.765625 C 31.070312 21.03125 31.183594 20.289062 31.230469 19.535156 C 31.277344 18.78125 31.257812 18.027344 31.167969 17.277344 C 31.078125 16.527344 30.921875 15.792969 30.699219 15.070312 C 30.476562 14.347656 30.191406 13.652344 29.84375 12.984375 C 29.496094 12.3125 29.089844 11.679688 28.625 11.085938 Z M 8.875 26.414062 L 26.414062 8.875 C 25.820312 8.410156 25.1875 8.003906 24.515625 7.65625 C 23.847656 7.308594 23.152344 7.023438 22.429688 6.800781 C 21.707031 6.578125 20.972656 6.421875 20.222656 6.332031 C 19.472656 6.242188 18.71875 6.222656 17.964844 6.269531 C 17.210938 6.316406 16.46875 6.429688 15.734375 6.609375 C 15.003906 6.792969 14.292969 7.039062 13.601562 7.351562 C 12.914062 7.660156 12.257812 8.03125 11.636719 8.460938 C 11.015625 8.890625 10.4375 9.371094 9.90625 9.90625 C 9.371094 10.4375 8.890625 11.015625 8.460938 11.636719 C 8.03125 12.257812 7.660156 12.914062 7.351562 13.601562 C 7.039062 14.292969 6.792969 15.003906 6.609375 15.734375 C 6.429688 16.46875 6.316406 17.210938 6.269531 17.964844 C 6.222656 18.71875 6.242188 19.472656 6.332031 20.222656 C 6.421875 20.972656 6.578125 21.707031 6.800781 22.429688 C 7.023438 23.152344 7.308594 23.847656 7.65625 24.515625 C 8.003906 25.1875 8.410156 25.820312 8.875 26.414062 Z M 18.75 34.375 C 10.121094 34.375 3.125 27.378906 3.125 18.75 C 3.125 10.121094 10.121094 3.125 18.75 3.125 C 27.378906 3.125 34.375 10.121094 34.375 18.75 C 34.375 27.378906 27.378906 34.375 18.75 34.375 Z M 18.75 34.375 " fill-opacity="1" fill-rule="nonzero"/></svg>