<svg xmlns="http://www.w3.org/2000/svg" xmlns:xlink="http://www.w3.org/1999/xlink" width="50" zoomAndPan="magnify" viewBox="0 0 37.5 37.499999" height="50" preserveAspectRatio="xMidYMid meet" version="1.0"><path fill="#00c2cb" d="M 16.710938 13.964844 L 16.710938 16.117188 L 15.136719 16.117188 L 15.136719 18.746094 L 16.710938 18.746094 L 16.710938 26.5625 L 19.949219 26.5625 L 19.949219 18.746094 L 22.121094 18.746094 C 22.121094 18.746094 22.324219 17.484375 22.421875 16.105469 L 19.960938 16.105469 L 19.960938 14.308594 C 19.960938 14.039062 20.3125 13.675781 20.664062 13.675781 L 22.425781 13.675781 L 22.425781 10.9375 L 20.027344 10.9375 C 16.632812 10.9375 16.710938 13.570312 16.710938 13.964844 Z M 16.710938 13.964844 " fill-opacity="1" fill-rule="nonzero"/><path fill="#00c2cb" d="M 9.375 6.25 C 8.960938 6.25 8.5625 6.328125 8.179688 6.488281 C 7.796875 6.644531 7.457031 6.871094 7.164062 7.164062 C 6.871094 7.457031 6.644531 7.796875 6.488281 8.179688 C 6.328125 8.5625 6.25 8.960938 6.25 9.375 L 6.25 28.125 C 6.25 28.539062 6.328125 28.9375 6.488281 29.320312 C 6.644531 29.703125 6.871094 30.042969 7.164062 30.335938 C 7.457031 30.628906 7.796875 30.855469 8.179688 31.011719 C 8.5625 31.171875 8.960938 31.25 9.375 31.25 L 28.125 31.25 C 28.539062 31.25 28.9375 31.171875 29.320312 31.011719 C 29.703125 30.855469 30.042969 30.628906 30.335938 30.335938 C 30.628906 30.042969 30.855469 29.703125 31.011719 29.320312 C 31.171875 28.9375 31.25 28.539062 31.25 28.125 L 31.25 9.375 C 31.25 8.960938 31.171875 8.5625 31.011719 8.179688 C 30.855469 7.796875 30.628906 7.457031 30.335938 7.164062 C 30.042969 6.871094 29.703125 6.644531 29.320312 6.488281 C 28.9375 6.328125 28.539062 6.25 28.125 6.25 Z M 9.375 3.125 L 28.125 3.125 C 28.535156 3.125 28.941406 3.164062 29.34375 3.246094 C 29.746094 3.324219 30.136719 3.445312 30.515625 3.601562 C 30.894531 3.757812 31.257812 3.949219 31.597656 4.179688 C 31.9375 4.40625 32.253906 4.664062 32.542969 4.957031 C 32.835938 5.246094 33.09375 5.5625 33.320312 5.902344 C 33.550781 6.242188 33.742188 6.605469 33.898438 6.984375 C 34.054688 7.363281 34.175781 7.753906 34.253906 8.15625 C 34.335938 8.558594 34.375 8.964844 34.375 9.375 L 34.375 28.125 C 34.375 28.535156 34.335938 28.941406 34.253906 29.34375 C 34.175781 29.746094 34.054688 30.136719 33.898438 30.515625 C 33.742188 30.894531 33.550781 31.257812 33.320312 31.597656 C 33.09375 31.9375 32.835938 32.253906 32.542969 32.542969 C 32.253906 32.835938 31.9375 33.09375 31.597656 33.320312 C 31.257812 33.550781 30.894531 33.742188 30.515625 33.898438 C 30.136719 34.054688 29.746094 34.175781 29.34375 34.253906 C 28.941406 34.335938 28.535156 34.375 28.125 34.375 L 9.375 34.375 C 8.964844 34.375 8.558594 34.335938 8.15625 34.253906 C 7.753906 34.175781 7.363281 34.054688 6.984375 33.898438 C 6.605469 33.742188 6.242188 33.550781 5.902344 33.320312 C 5.5625 33.09375 5.246094 32.835938 4.957031 32.542969 C 4.664062 32.253906 4.40625 31.9375 4.179688 31.597656 C 3.949219 31.257812 3.757812 30.894531 3.601562 30.515625 C 3.445312 30.136719 3.324219 29.746094 3.246094 29.34375 C 3.164062 28.941406 3.125 28.535156 3.125 28.125 L 3.125 9.375 C 3.125 8.964844 3.164062 8.558594 3.246094 8.15625 C 3.324219 7.753906 3.445312 7.363281 3.601562 6.984375 C 3.757812 6.605469 3.949219 6.242188 4.179688 5.902344 C 4.40625 5.5625 4.664062 5.246094 4.957031 4.957031 C 5.246094 4.664062 5.5625 4.40625 5.902344 4.179688 C 6.242188 3.949219 6.605469 3.757812 6.984375 3.601562 C 7.363281 3.445312 7.753906 3.324219 8.15625 3.246094 C 8.558594 3.164062 8.964844 3.125 9.375 3.125 Z M 9.375 3.125 " fill-opacity="1" fill-rule="nonzero"/></svg>